<?xml version="1.0" encoding="iso-8859-1"?>
<!-- Generator: Adobe Illustrator 19.0.0, SVG Export Plug-In . SVG Version: 6.00 Build 0)  -->
<svg xmlns="http://www.w3.org/2000/svg" xmlns:xlink="http://www.w3.org/1999/xlink" version="1.1" id="Layer_1" x="0px" y="0px" viewBox="0 0 512 512" style="enable-background:new 0 0 512 512;" xml:space="preserve" width="100px" height="100px">
<g>
	<g>
		<path d="M231.609,54.43c-41.895,0-75.979,34.084-75.979,75.979c0,41.895,34.084,75.979,75.979,75.979s75.979-34.084,75.979-75.979    C307.588,88.514,273.503,54.43,231.609,54.43z M231.609,74.601c19.163,0,36.097,9.711,46.15,24.467    c-14.872-4.399-30.312-6.632-46.144-6.632c-15.837,0-31.282,2.235-46.158,6.636C195.51,84.313,212.444,74.601,231.609,74.601z     M231.609,186.217c-17.701,0-33.491-8.293-43.724-21.188c13.558-6.569,28.487-10.006,43.729-10.006s30.167,3.437,43.717,10.009    C265.1,177.923,249.31,186.217,231.609,186.217z M284.821,147.229c-16.468-8.12-34.644-12.379-53.207-12.379    c-18.562,0-36.742,4.259-53.218,12.377c-1.682-5.312-2.595-10.96-2.595-16.819c0-2.246,0.149-4.455,0.407-6.632    c17.516-7.406,36.126-11.168,55.406-11.168c19.276,0,37.882,3.761,55.393,11.164c0.26,2.178,0.409,4.389,0.409,6.636    C287.416,136.269,286.503,141.919,284.821,147.229z" fill="#FFFFFF"/>
	</g>
</g>
<g>
	<g>
		<path d="M231.609,304.35c-41.895,0-75.979,34.084-75.979,75.979s34.084,75.979,75.979,75.979    c41.895,0,75.979-34.084,75.979-75.979S273.503,304.35,231.609,304.35z M231.609,324.522c17.698,0,33.489,8.292,43.72,21.184    c-13.549,6.57-28.474,10.008-43.714,10.008c-15.24,0-30.17-3.437-43.726-10.006C198.119,332.813,213.909,324.522,231.609,324.522z     M231.609,436.137c-19.164,0-36.102-9.715-46.155-24.475c14.877,4.401,30.323,6.636,46.16,6.636    c15.833,0,31.275-2.234,46.147-6.632C267.709,426.425,250.773,436.137,231.609,436.137z M231.614,398.127    c-19.28,0-37.89-3.763-55.406-11.168c-0.258-2.176-0.407-4.385-0.407-6.63c0-5.86,0.913-11.51,2.595-16.82    c16.476,8.117,34.656,12.376,53.218,12.376c18.562,0,36.738-4.259,53.206-12.379c1.682,5.31,2.597,10.961,2.597,16.823    c0,2.246-0.149,4.457-0.407,6.634C269.497,394.366,250.89,398.127,231.614,398.127z" fill="#FFFFFF"/>
	</g>
</g>
<g>
	<g>
		<path d="M356.57,179.389c-41.895,0-75.979,34.084-75.979,75.979s34.084,75.979,75.979,75.979s75.979-34.084,75.979-75.979    S398.464,179.389,356.57,179.389z M321.95,299.092c-12.894-10.231-21.188-26.023-21.188-43.724    c0-17.703,8.294-33.493,21.189-43.725c6.57,13.553,10.009,28.482,10.009,43.724C331.96,270.609,328.522,285.538,321.95,299.092z     M363.198,310.769c-2.176,0.258-4.384,0.407-6.628,0.407c-5.859,0-11.507-0.913-16.818-2.595    c8.12-16.472,12.38-34.651,12.38-53.214c0-18.562-4.259-36.74-12.379-53.212c5.309-1.681,10.957-2.594,16.816-2.594    c2.244,0,4.454,0.149,6.63,0.407c7.402,17.525,11.162,36.134,11.162,55.399C374.361,274.634,370.601,293.242,363.198,310.769z     M387.894,301.529c4.401-14.884,6.636-30.33,6.636-46.162s-2.235-31.277-6.636-46.159c14.766,10.052,24.483,26.992,24.483,46.16    C412.377,274.538,402.66,291.478,387.894,301.529z" fill="#FFFFFF"/>
	</g>
</g>
<g>
	<g>
		<path d="M106.651,179.389c-41.895,0-75.979,34.084-75.979,75.979s34.084,75.979,75.979,75.979s75.979-34.083,75.979-75.979    C182.63,213.474,148.545,179.389,106.651,179.389z M50.843,255.368c0-19.166,9.715-36.103,24.475-46.155    c-4.4,14.881-6.634,30.324-6.634,46.154c0,15.831,2.235,31.275,6.635,46.158C60.557,291.473,50.843,274.535,50.843,255.368z     M106.649,311.176c-2.244,0-4.455-0.148-6.632-0.407c-7.403-17.526-11.163-36.135-11.163-55.402    c0-19.265,3.76-37.873,11.16-55.399c2.179-0.26,4.389-0.407,6.635-0.407c5.862,0,11.513,0.913,16.824,2.597    c-8.118,16.471-12.377,34.649-12.377,53.21c0,18.562,4.259,36.74,12.379,53.211C118.163,310.262,112.511,311.176,106.649,311.176z     M141.277,299.087c-6.57-13.553-10.008-28.479-10.008-43.72c0-15.24,3.437-30.167,10.006-43.718    c12.891,10.232,21.183,26.021,21.183,43.72S154.166,288.856,141.277,299.087z" fill="#FFFFFF"/>
	</g>
</g>
<g>
	<g>
		<path d="M231.61,225.107c-16.687,0-30.261,13.575-30.261,30.261c0,16.686,13.575,30.261,30.261,30.261    c16.687,0,30.263-13.575,30.263-30.261C261.873,238.683,248.297,225.107,231.61,225.107z M231.609,265.458    c-5.563,0-10.09-4.526-10.09-10.09s4.526-10.09,10.09-10.09c5.565,0,10.091,4.526,10.091,10.09    C241.7,260.932,237.173,265.458,231.609,265.458z" fill="#FFFFFF"/>
	</g>
</g>
<g>
	<g>
		<path d="M503.621,240.411c-5.489-0.943-10.704,2.742-11.648,8.231c-9.783,56.925-29.456,103.763-58.469,139.214    c-16.803,20.532-36.813,37.328-59.687,50.197c54.374-42.421,89.404-108.536,89.404-182.685c0-127.711-103.9-231.61-231.61-231.61    S0,127.659,0,255.368c0,127.467,103.506,231.207,230.883,231.601c2.499,0.315,11.166,1.272,24.082,1.272    c23.114,0,59.792-3.074,98.84-18.41c37.632-14.779,69.574-37.91,94.94-68.751c31.453-38.242,52.684-88.381,63.107-149.021    C512.796,246.57,509.11,241.355,503.621,240.411z M231.609,466.807c-116.587,0-211.437-94.85-211.437-211.439    S115.022,43.93,231.609,43.93s211.439,94.852,211.439,211.439S348.196,466.807,231.609,466.807z" fill="#FFFFFF"/>
	</g>
</g>
<g>
</g>
<g>
</g>
<g>
</g>
<g>
</g>
<g>
</g>
<g>
</g>
<g>
</g>
<g>
</g>
<g>
</g>
<g>
</g>
<g>
</g>
<g>
</g>
<g>
</g>
<g>
</g>
<g>
</g>
</svg>
